<?xml version="1.0" encoding="UTF-8"?>
<svg version="1.1" xmlns="http://www.w3.org/2000/svg" width="3264" height="1976">
<path d="M0 0 C454.46723245 -0.04040148 454.46723245 -0.04040148 627.89059007 -0.04816496 C630.32512996 -0.04827434 632.75966985 -0.04838376 635.19420974 -0.04849322 C636.41491155 -0.0485481 637.63561336 -0.04860297 638.89330613 -0.04865951 C681.33341223 -0.05057012 723.77351833 -0.05253968 766.21362443 -0.05462768 C770.33428187 -0.05483029 774.4549393 -0.05503148 778.57559674 -0.05523144 C842.32080406 -0.05832476 906.06601118 -0.06222964 969.81121826 -0.06866455 C970.48969766 -0.06873299 971.16817705 -0.06880142 971.86721643 -0.06887193 C994.43036209 -0.07114901 1016.99350775 -0.0735034 1039.55665341 -0.07586844 C1059.94313107 -0.07800509 1080.32960872 -0.08011399 1100.71608639 -0.08213139 C1101.38576809 -0.08219767 1102.05544979 -0.08226395 1102.74542487 -0.08233224 C1144.67087495 -0.08647454 1186.59632499 -0.08941404 1228.52177525 -0.09113979 C1229.81612975 -0.09119333 1231.11048426 -0.09124686 1232.44406163 -0.09130202 C1260.85315947 -0.09246758 1289.26225732 -0.09336253 1317.67135517 -0.09400098 C1329.10092158 -0.09426262 1340.53048799 -0.09456324 1351.9600544 -0.09487724 C1353.21099774 -0.09491067 1354.46194107 -0.0949441 1355.75079178 -0.09497854 C1396.10633279 -0.09607632 1436.4618727 -0.1003519 1476.81741327 -0.10628221 C1517.4441759 -0.11223791 1558.07093747 -0.11510175 1598.69770056 -0.11362399 C1604.30282787 -0.11342089 1609.90795519 -0.11325351 1615.5130825 -0.11310768 C1616.61191576 -0.1130778 1617.71074901 -0.11304792 1618.84288024 -0.11301713 C1636.29220118 -0.11263543 1653.74151988 -0.11563016 1671.1908402 -0.12000986 C1688.31919946 -0.1242404 1705.44755579 -0.1249508 1722.57591533 -0.12183181 C1732.63713538 -0.12010811 1742.69834616 -0.12116962 1752.75956514 -0.126217 C1759.42341196 -0.12929106 1766.08725209 -0.12880553 1772.75109869 -0.12530107 C1776.54033767 -0.12341177 1780.3295585 -0.12314798 1784.11879616 -0.12723524 C1788.17349611 -0.13157529 1792.22815245 -0.12832186 1796.28285259 -0.1241985 C1798.06698417 -0.12796181 1798.06698417 -0.12796181 1799.88715881 -0.13180115 C1800.95368553 -0.12944826 1802.02021224 -0.12709536 1803.11905795 -0.12467116 C1804.50764871 -0.12476717 1804.50764871 -0.12476717 1805.92429181 -0.12486512 C1808 0 1808 0 1809 1 C1809.09805159 2.64107685 1809.12555559 4.28640124 1809.12584114 5.93040466 C1809.12844889 7.00466485 1809.13105664 8.07892504 1809.13374341 9.18573856 C1809.13151268 10.38055568 1809.12928196 11.57537279 1809.12698364 12.80639648 C1809.12932363 14.69322096 1809.12932363 14.69322096 1809.13171089 16.61816311 C1809.13590857 20.12566683 1809.13381155 23.63314356 1809.13072467 27.14064741 C1809.12847256 30.9171006 1809.13194923 34.69354897 1809.13470459 38.47000122 C1809.13916332 45.87439837 1809.13818536 53.2787854 1809.13529195 60.68318295 C1809.13303832 66.69812176 1809.13272522 72.71305772 1809.13381577 78.72799683 C1809.13404561 80.0095774 1809.13404561 80.0095774 1809.13428011 81.31704849 C1809.13459982 83.05243723 1809.13492403 84.78782596 1809.1352527 86.5232147 C1809.13810779 102.81582418 1809.13482001 119.10842805 1809.12945233 135.40103662 C1809.12498427 149.39659233 1809.12576019 163.39213975 1809.13037109 177.38769531 C1809.13571634 193.61994215 1809.1378331 209.85218406 1809.13475883 226.08443165 C1809.13444026 227.81362216 1809.13412589 229.54281266 1809.13381577 231.27200317 C1809.13366149 232.12291344 1809.13350721 232.9738237 1809.13334826 233.85051912 C1809.13248296 239.86184427 1809.13394627 245.8731663 1809.13629532 251.88449097 C1809.13909297 259.20510047 1809.13835581 266.52569925 1809.13301457 273.84630752 C1809.13037708 277.58508632 1809.1293733 281.3238472 1809.13266373 285.06262589 C1809.1361688 289.10630086 1809.13199849 293.14993015 1809.12698364 297.19360352 C1809.13032973 298.98582919 1809.13032973 298.98582919 1809.13374341 300.81426144 C1809.13113566 301.88852162 1809.12852791 302.96278181 1809.12584114 304.06959534 C1809.12567879 305.00430444 1809.12551644 305.93901354 1809.12534916 306.90204716 C1809 309 1809 309 1808 310 C1806.40810027 310.09814195 1804.81184093 310.12631906 1803.21691895 310.12698364 C1802.18204849 310.12980347 1801.14717804 310.13262329 1800.08094788 310.13552856 C1798.3634861 310.13249222 1798.3634861 310.13249222 1796.61132812 310.12939453 C1794.81398476 310.13202301 1794.81398476 310.13202301 1792.98033142 310.13470459 C1789.68495208 310.13836275 1786.38963516 310.1374897 1783.09425926 310.1343255 C1779.65272307 310.13180149 1776.21118962 310.13413956 1772.76965332 310.13571167 C1766.98917153 310.13753325 1761.20870251 310.13512737 1755.42822266 310.13037109 C1748.73616466 310.12492849 1742.04413713 310.12669116 1735.35207987 310.1321975 C1729.6162078 310.13672897 1723.88034492 310.13737901 1718.14447165 310.13475883 C1714.71439712 310.13319624 1711.28433693 310.13300179 1707.85426331 310.13629532 C1704.03238736 310.13970843 1700.2105458 310.13498373 1696.38867188 310.12939453 C1695.24369736 310.13141876 1694.09872284 310.13344299 1692.91905212 310.13552856 C1691.88418167 310.13270874 1690.84931122 310.12988892 1689.78308105 310.12698364 C1688.87825737 310.12660662 1687.97343369 310.12622959 1687.0411911 310.12584114 C1685 310 1685 310 1684 309 C1684 248.94 1684 188.88 1684 127 C1170.19 127 656.38 127 127 127 C127 641.14 127 1155.28 127 1685 C640.81 1685 1154.62 1685 1684 1685 C1684 1623.62 1684 1562.24 1684 1499 C1686.46167411 1497.76916295 1688.06739567 1497.87418553 1690.82067871 1497.87301636 C1692.34763618 1497.86878662 1692.34763618 1497.86878662 1693.90544128 1497.86447144 C1695.026548 1497.86649567 1696.14765472 1497.8685199 1697.30273438 1497.87060547 C1699.06862663 1497.86797699 1699.06862663 1497.86797699 1700.87019348 1497.86529541 C1704.10359107 1497.86164121 1707.33694792 1497.86250781 1710.57034492 1497.8656745 C1713.95001437 1497.86820165 1717.32968104 1497.86585956 1720.70935059 1497.86428833 C1726.38550304 1497.86246768 1732.06164249 1497.86487022 1737.73779297 1497.86962891 C1744.30545198 1497.87507133 1750.87307995 1497.8733086 1757.4407382 1497.8678025 C1763.07388688 1497.86326841 1768.70702619 1497.86262228 1774.34017611 1497.86524117 C1777.7071105 1497.86680231 1781.07403029 1497.86700215 1784.44096375 1497.86370468 C1788.193086 1497.86117692 1791.94514789 1497.86502055 1795.69726562 1497.87060547 C1797.3789257 1497.86756912 1797.3789257 1497.86756912 1799.09455872 1497.86447144 C1800.11253036 1497.86729126 1801.13050201 1497.87011108 1802.17932129 1497.87301636 C1803.06717567 1497.87339338 1803.95503006 1497.87377041 1804.86978912 1497.87415886 C1807 1498 1807 1498 1809 1499 C1809 1600.64 1809 1702.28 1809 1807 C1212.03 1807 615.06 1807 0 1807 C0 1210.69 0 614.38 0 0 Z " fill="#FEFEFE" transform="translate(84,85)"/>
<path d="M0 0 C0.86051083 0.00262701 1.72102167 0.00525403 2.60760859 0.00796065 C3.51710747 0.0068068 4.42660636 0.00565296 5.36366582 0.00446415 C8.45153848 0.00178953 11.53936035 0.00632655 14.62723044 0.01075396 C16.84723621 0.01031843 19.06724194 0.00944386 21.28724739 0.00816479 C27.41904125 0.00591624 33.55081782 0.00994601 39.68260947 0.01494285 C45.60632668 0.01880117 51.53004192 0.01798367 57.45376007 0.01726101 C69.57702636 0.01594498 81.70028722 0.01929659 93.82355192 0.02527842 C105.83277232 0.03118884 117.84199045 0.03504303 129.85121229 0.03613123 C130.96989103 0.03623434 130.96989103 0.03623434 132.11116935 0.03633953 C135.89840455 0.03667785 139.68563975 0.03697924 143.47287496 0.03726641 C170.32066927 0.03936865 197.16846062 0.04611109 224.01625326 0.05556902 C250.10381821 0.06474855 276.19138234 0.07183457 302.27894858 0.07607684 C303.08261913 0.07620836 303.88628968 0.07633989 304.71431389 0.0764754 C312.78486342 0.07779388 320.85541296 0.0790697 328.92596251 0.08031426 C345.36763479 0.08285069 361.80930701 0.08567195 378.25097921 0.08866534 C379.38500284 0.08887127 379.38500284 0.08887127 380.54193604 0.08908137 C431.0554304 0.09828711 481.56892304 0.11415364 532.08241537 0.13100848 C532.08241537 0.79100848 532.08241537 1.45100848 532.08241537 2.13100848 C533.15362631 2.11940691 534.22483725 2.10780535 535.32850912 2.09585223 C536.7256428 2.08647549 538.12277836 2.07737517 539.51991537 2.06850848 C540.22696615 2.06012957 540.93401693 2.05175066 541.6624935 2.04311785 C543.46935097 2.0344726 545.2762914 2.07880836 547.08241537 2.13100848 C547.41241537 2.46100848 547.74241537 2.79100848 548.08241537 3.13100848 C549.62093096 3.29016526 551.16379298 3.40807473 552.70741537 3.50600848 C557.46771959 3.92703396 560.78513594 5.10875933 565.08241537 7.13100848 C567.8613015 7.82241369 567.8613015 7.82241369 570.08241537 8.13100848 C570.08241537 8.79100848 570.08241537 9.45100848 570.08241537 10.13100848 C572.06241537 10.13100848 574.04241537 10.13100848 576.08241537 10.13100848 C576.08241537 10.79100848 576.08241537 11.45100848 576.08241537 12.13100848 C577.40241537 12.13100848 578.72241537 12.13100848 580.08241537 12.13100848 C580.08241537 12.79100848 580.08241537 13.45100848 580.08241537 14.13100848 C581.40241537 14.13100848 582.72241537 14.13100848 584.08241537 14.13100848 C584.08241537 14.79100848 584.08241537 15.45100848 584.08241537 16.13100848 C585.15491537 16.25475848 586.22741537 16.37850848 587.33241537 16.50600848 C590.46105152 17.02744783 592.41721961 17.53189102 595.08241537 19.13100848 C595.08241537 19.79100848 595.08241537 20.45100848 595.08241537 21.13100848 C597.06241537 21.79100848 599.04241537 22.45100848 601.08241537 23.13100848 C601.08241537 23.79100848 601.08241537 24.45100848 601.08241537 25.13100848 C603.06241537 25.79100848 605.04241537 26.45100848 607.08241537 27.13100848 C607.08241537 27.79100848 607.08241537 28.45100848 607.08241537 29.13100848 C609.55741537 30.12100848 609.55741537 30.12100848 612.08241537 31.13100848 C612.08241537 31.79100848 612.08241537 32.45100848 612.08241537 33.13100848 C612.74241537 33.13100848 613.40241537 33.13100848 614.08241537 33.13100848 C614.08241537 33.79100848 614.08241537 34.45100848 614.08241537 35.13100848 C616.55741537 36.12100848 616.55741537 36.12100848 619.08241537 37.13100848 C619.08241537 37.79100848 619.08241537 38.45100848 619.08241537 39.13100848 C619.74241537 39.13100848 620.40241537 39.13100848 621.08241537 39.13100848 C621.08241537 39.79100848 621.08241537 40.45100848 621.08241537 41.13100848 C621.97960287 41.53319598 621.97960287 41.53319598 622.89491537 41.94350848 C625.08089391 43.13018254 626.49574131 44.2269996 628.08241537 46.13100848 C628.08241537 46.79100848 628.08241537 47.45100848 628.08241537 48.13100848 C628.74241537 48.13100848 629.40241537 48.13100848 630.08241537 48.13100848 C633.08241537 51.59254694 633.08241537 51.59254694 633.08241537 54.13100848 C633.74241537 54.13100848 634.40241537 54.13100848 635.08241537 54.13100848 C636.78016725 56.41170525 638.35219857 58.68579904 639.89491537 61.06850848 C640.34270346 61.75203387 640.79049154 62.43555926 641.25184897 63.13979754 C650.08241537 76.7277553 650.08241537 76.7277553 650.08241537 81.13100848 C650.74241537 81.13100848 651.40241537 81.13100848 652.08241537 81.13100848 C652.08241537 82.45100848 652.08241537 83.77100848 652.08241537 85.13100848 C652.74241537 85.13100848 653.40241537 85.13100848 654.08241537 85.13100848 C654.08241537 86.45100848 654.08241537 87.77100848 654.08241537 89.13100848 C654.74241537 89.13100848 655.40241537 89.13100848 656.08241537 89.13100848 C657.06920435 91.98273809 658.04698355 94.8370519 659.01991537 97.69350848 C659.29770834 98.49337176 659.57550131 99.29323504 659.86171225 100.1173366 C661.45469323 104.81950938 662.4681832 109.21068547 663.08241537 114.13100848 C663.41241537 114.46100848 663.74241537 114.79100848 664.08241537 115.13100848 C664.33218713 117.58306867 664.5089859 120.00443571 664.63697889 122.46416029 C664.67911176 123.25991335 664.72124462 124.0556664 664.76465424 124.87553319 C665.32842415 136.84236845 665.22023873 148.82370037 665.20939901 160.8005794 C665.20999876 163.58726831 665.21210121 166.37395566 665.21412626 169.16064385 C665.21771755 175.1936073 665.21764103 181.22656178 665.2150791 187.25952563 C665.21128005 196.23020133 665.21323881 205.20086954 665.21628741 214.17154521 C665.22153996 230.19291043 665.22110229 246.21427166 665.21820849 262.23563726 C665.2156904 276.24581491 665.21503744 290.25599109 665.21623114 304.26616892 C665.21634572 305.66153282 665.21634572 305.66153282 665.21646261 307.08508589 C665.21677395 310.86129953 665.21709235 314.63751318 665.21742237 318.41372683 C665.22047808 353.79967849 665.21771235 389.18562762 665.21232547 424.57157889 C665.20757356 456.02604181 665.20801045 487.48050067 665.21278647 518.93496355 C665.21813575 554.28292305 665.22026801 589.6308803 665.2171742 624.97884014 C665.21685348 628.74279877 665.21654064 632.50675741 665.21623114 636.27071604 C665.21615206 637.19748873 665.21607298 638.12426143 665.21599151 639.07911814 C665.21485248 653.09401037 665.21618706 667.10890097 665.21871069 681.12379298 C665.22156256 697.04081183 665.22087062 712.95782607 665.21542995 728.87484435 C665.2124832 737.79075275 665.21231706 746.70665116 665.21607612 755.62255932 C665.21830665 761.56629248 665.2169446 767.51001758 665.21257135 773.45374954 C665.21017669 776.84740687 665.20941186 780.24104424 665.21297733 783.63470099 C665.21597766 787.27760946 665.21294069 790.92046179 665.20825651 794.56336722 C665.21059768 795.63371509 665.21293885 796.70406295 665.21535096 797.80684561 C665.21284744 798.7677372 665.21034392 799.7286288 665.20776454 800.71863833 C665.2076629 801.97019114 665.2076629 801.97019114 665.20755921 803.24702785 C665.08241537 805.13100848 665.08241537 805.13100848 664.08241537 806.13100848 C624.48241537 806.13100848 584.88241537 806.13100848 544.08241537 806.13100848 C544.08241537 713.73100848 544.08241537 621.33100848 544.08241537 526.13100848 C358.62241537 526.13100848 173.16241537 526.13100848 -17.91758463 526.13100848 C-17.91758463 618.53100848 -17.91758463 710.93100848 -17.91758463 806.13100848 C-58.17758463 806.13100848 -98.43758463 806.13100848 -139.91758463 806.13100848 C-141.50287466 804.54571845 -141.04331275 802.93574436 -141.04408446 800.73557308 C-141.04822407 799.29991739 -141.04822407 799.29991739 -141.05244732 797.83525854 C-141.050392 796.76915202 -141.04833668 795.70304549 -141.04621908 794.60463271 C-141.04797212 793.47875041 -141.04972516 792.35286811 -141.05153131 791.19286817 C-141.05623352 787.36876451 -141.05371504 783.54469817 -141.0512974 779.72059283 C-141.05261023 776.97164038 -141.05542286 774.22268993 -141.05816272 771.47373858 C-141.06333247 765.47015184 -141.0647312 759.46657316 -141.06370661 753.46298441 C-141.06218661 744.53491427 -141.0663326 735.60685311 -141.07158123 726.67878471 C-141.0812736 709.8041991 -141.08406623 692.92961652 -141.08463829 676.05502846 C-141.0850973 663.01981345 -141.08715287 649.98459964 -141.09033892 636.94938502 C-141.09123644 633.20112279 -141.09212625 629.45286056 -141.09301379 625.70459834 C-141.09323484 624.77281643 -141.09345589 623.84103452 -141.09368364 622.88101679 C-141.09984216 596.65320009 -141.10378379 570.42538381 -141.10334036 544.19756636 C-141.10332478 543.20780236 -141.1033092 542.21803836 -141.10329315 541.19828151 C-141.10321004 536.18146826 -141.103111 531.16465502 -141.10300844 526.14784177 C-141.1029885 525.15144663 -141.10296855 524.15505149 -141.102948 523.12846256 C-141.10290756 521.11350231 -141.10286577 519.09854205 -141.10282261 517.08358179 C-141.10221035 485.75929815 -141.10970562 454.43502535 -141.12339517 423.1107448 C-141.1387622 387.93342904 -141.14736093 352.7561204 -141.14643195 317.57880107 C-141.14635732 313.82582352 -141.14630862 310.07284597 -141.14627764 306.31986842 C-141.14626598 305.39576601 -141.14625433 304.47166361 -141.14624232 303.5195581 C-141.14621156 288.65566696 -141.15259464 273.79178523 -141.1612099 258.92789688 C-141.16969519 243.97856936 -141.17066957 229.02925559 -141.16410058 214.07992699 C-141.16040998 205.20279626 -141.16222254 196.32570733 -141.17204292 187.44858104 C-141.17805521 181.51094822 -141.17673358 175.57334556 -141.16957242 169.6357141 C-141.16570125 166.25750834 -141.1660018 162.8794488 -141.17302977 159.50123849 C-141.24134698 124.32436598 -135.12015759 93.53766122 -116.04258463 63.63100848 C-115.56603433 62.8819826 -115.08948404 62.13295672 -114.59849283 61.36123309 C-113.4290918 59.57869913 -112.18032955 57.84868171 -110.91758463 56.13100848 C-110.25758463 56.13100848 -109.59758463 56.13100848 -108.91758463 56.13100848 C-108.60820963 55.51225848 -108.29883463 54.89350848 -107.98008463 54.25600848 C-107.29258463 52.88100848 -106.60508463 51.50600848 -105.91758463 50.13100848 C-105.25758463 50.13100848 -104.59758463 50.13100848 -103.91758463 50.13100848 C-103.91758463 49.47100848 -103.91758463 48.81100848 -103.91758463 48.13100848 C-103.25758463 48.13100848 -102.59758463 48.13100848 -101.91758463 48.13100848 C-101.69070963 47.57413348 -101.46383463 47.01725848 -101.23008463 46.44350848 C-99.54208427 43.4694126 -97.45081946 41.41091983 -94.91758463 39.13100848 C-94.25758463 39.13100848 -93.59758463 39.13100848 -92.91758463 39.13100848 C-92.91758463 38.47100848 -92.91758463 37.81100848 -92.91758463 37.13100848 C-88.44699639 33.13100848 -88.44699639 33.13100848 -85.91758463 33.13100848 C-85.91758463 32.47100848 -85.91758463 31.81100848 -85.91758463 31.13100848 C-85.25758463 31.13100848 -84.59758463 31.13100848 -83.91758463 31.13100848 C-83.91758463 30.47100848 -83.91758463 29.81100848 -83.91758463 29.13100848 C-82.92758463 29.13100848 -81.93758463 29.13100848 -80.91758463 29.13100848 C-80.91758463 28.47100848 -80.91758463 27.81100848 -80.91758463 27.13100848 C-77.91758463 25.13100848 -77.91758463 25.13100848 -74.91758463 25.13100848 C-74.91758463 24.47100848 -74.91758463 23.81100848 -74.91758463 23.13100848 C-71.91758463 21.13100848 -71.91758463 21.13100848 -68.91758463 21.13100848 C-68.91758463 20.47100848 -68.91758463 19.81100848 -68.91758463 19.13100848 C-62.41758463 16.13100848 -62.41758463 16.13100848 -57.91758463 16.13100848 C-57.91758463 15.47100848 -57.91758463 14.81100848 -57.91758463 14.13100848 C-56.59758463 14.13100848 -55.27758463 14.13100848 -53.91758463 14.13100848 C-53.91758463 13.47100848 -53.91758463 12.81100848 -53.91758463 12.13100848 C-52.59758463 12.13100848 -51.27758463 12.13100848 -49.91758463 12.13100848 C-49.91758463 11.47100848 -49.91758463 10.81100848 -49.91758463 10.13100848 C-47.93758463 10.13100848 -45.95758463 10.13100848 -43.91758463 10.13100848 C-43.91758463 9.47100848 -43.91758463 8.81100848 -43.91758463 8.13100848 C-43.13512369 7.92604754 -42.35266275 7.7210866 -41.54649088 7.50991473 C-40.53457682 7.24050066 -39.52266275 6.9710866 -38.48008463 6.69350848 C-37.47074869 6.42667254 -36.46141275 6.1598366 -35.42149088 5.88491473 C-33.00006461 5.37122771 -33.00006461 5.37122771 -31.91758463 4.13100848 C-29.59941374 3.81003097 -27.27979106 3.61879892 -24.94883463 3.41225848 C-22.9257787 3.3403501 -22.9257787 3.3403501 -21.91758463 2.13100848 C-18.70771533 1.86101947 -15.50527603 1.68489411 -12.28867838 1.52553973 C-7.80619267 1.27507328 -4.54244992 0.0131987 0 0 Z M5.08241537 123.13100848 C2.42778416 123.58560706 -0.239476 123.83344085 -2.91758463 124.13100848 C-2.91758463 124.79100848 -2.91758463 125.45100848 -2.91758463 126.13100848 C-3.53633463 126.27538348 -4.15508463 126.41975848 -4.79258463 126.56850848 C-6.95016785 127.06253073 -6.95016785 127.06253073 -8.91758463 128.13100848 C-8.91758463 128.79100848 -8.91758463 129.45100848 -8.91758463 130.13100848 C-9.81477213 130.47132098 -9.81477213 130.47132098 -10.73008463 130.81850848 C-14.98068685 133.36886981 -16.12978817 137.66151733 -17.91758463 142.13100848 C-17.91758463 228.59100848 -17.91758463 315.05100848 -17.91758463 404.13100848 C167.54241537 404.13100848 353.00241537 404.13100848 544.08241537 404.13100848 C544.08241537 317.34100848 544.08241537 230.55100848 544.08241537 141.13100848 C543.42241537 141.13100848 542.76241537 141.13100848 542.08241537 141.13100848 C541.98831381 140.39495379 541.89421225 139.6588991 541.79725912 138.90053973 C540.97708542 135.72292684 539.83331604 134.23439362 537.64491537 131.81850848 C536.71872397 130.77243426 536.71872397 130.77243426 535.77382162 129.70522723 C534.22351727 127.90391061 534.22351727 127.90391061 532.08241537 128.13100848 C532.08241537 127.47100848 532.08241537 126.81100848 532.08241537 126.13100848 C529.37592268 124.43945054 527.01630207 123.91595188 523.89491537 123.56850848 C520.08241537 123.13100848 520.08241537 123.13100848 519.08241537 122.13100848 C516.36348675 122.03113345 513.66990423 121.99740417 510.95044973 122.00516734 C509.64996481 122.00298717 509.64996481 122.00298717 508.32320747 122.00076297 C505.37992996 121.99707557 502.43670336 122.00060198 499.49342611 122.00402483 C497.37725289 122.00287409 495.26107987 122.00128689 493.14490727 121.99929759 C487.3000845 121.99509777 481.45527792 121.99719788 475.61045507 122.00028381 C469.31864173 122.00253505 463.02683129 121.99905968 456.73501852 121.99630389 C445.11177631 121.99210237 433.4885407 121.99248317 421.86529832 121.99521535 C411.12923403 121.99772674 400.39317166 121.99838957 389.65710714 121.99719271 C388.94612511 121.99711633 388.23514308 121.99703994 387.50261613 121.99696124 C384.61681472 121.99664992 381.7310133 121.99633153 378.84521189 121.99600148 C351.75084466 121.99293957 324.65648074 121.99572054 297.56211402 122.00109837 C273.46813066 122.0058443 249.37415259 122.00541968 225.28016928 122.00063738 C198.23669187 121.99528765 171.1932174 121.99315668 144.14973953 121.99624965 C141.26906756 121.99657038 138.38839558 121.99688322 135.5077236 121.99719271 C134.44371019 121.99731133 134.44371019 121.99731133 133.35820156 121.99743234 C122.62649643 121.99857184 111.89479342 121.99723577 101.16308859 121.99471316 C88.96582319 121.99186041 76.76856563 121.99265154 64.57130066 121.9979939 C58.34144648 122.00063212 52.11160306 122.00163396 45.88174894 121.99834475 C40.18859452 121.99538424 34.49546092 121.99697047 28.80230841 122.0023223 C26.73302081 122.00344754 24.66373147 122.00285297 22.59444496 122.00044651 C19.80106461 121.99744497 17.00775741 122.00048446 14.21438101 122.00516734 C13.39426466 122.00282617 12.57414831 122.000485 11.72917995 121.99807289 C8.10760354 121.66913588 8.10760354 121.66913588 5.08241537 123.13100848 Z " fill="#FEFEFE" transform="translate(2517.9175846278667,591.8689915239811)"/>
<path d="M0 0 C1.06743628 0.00184359 2.13487255 0.00368717 3.23465538 0.00558662 C4.45745705 0.0028373 5.68025871 0.00008797 6.94011497 -0.00274467 C8.30240537 0.00433406 9.66469479 0.01160369 11.02698326 0.01904488 C12.45583145 0.01960878 13.88468021 0.01929284 15.31352806 0.01815987 C19.19969977 0.01758453 23.08574876 0.02936791 26.97189188 0.04330778 C31.03048174 0.05578518 35.08907421 0.05698327 39.14768028 0.0593586 C46.8364474 0.06558219 54.52515784 0.08200485 62.21389997 0.10205758 C70.96588795 0.12438929 79.7178786 0.13540313 88.46988797 0.14544845 C106.47641935 0.16637034 124.48289793 0.20156334 142.4893856 0.24609566 C143.4793856 2.22609566 143.4793856 2.22609566 144.4893856 4.24609566 C145.1493856 4.24609566 145.8093856 4.24609566 146.4893856 4.24609566 C146.4893856 4.90609566 146.4893856 5.56609566 146.4893856 6.24609566 C147.1493856 6.24609566 147.8093856 6.24609566 148.4893856 6.24609566 C148.4893856 6.90609566 148.4893856 7.56609566 148.4893856 8.24609566 C149.1493856 8.24609566 149.8093856 8.24609566 150.4893856 8.24609566 C152.4893856 11.24609566 152.4893856 11.24609566 152.4893856 14.24609566 C153.1493856 14.24609566 153.8093856 14.24609566 154.4893856 14.24609566 C154.4893856 14.90609566 154.4893856 15.56609566 154.4893856 16.24609566 C155.1493856 16.24609566 155.8093856 16.24609566 156.4893856 16.24609566 C156.4893856 16.90609566 156.4893856 17.56609566 156.4893856 18.24609566 C157.1493856 18.24609566 157.8093856 18.24609566 158.4893856 18.24609566 C158.4893856 18.90609566 158.4893856 19.56609566 158.4893856 20.24609566 C159.1493856 20.24609566 159.8093856 20.24609566 160.4893856 20.24609566 C162.2159481 22.14453316 162.2159481 22.14453316 164.1143856 24.62109566 C164.74602623 25.43320503 165.37766685 26.24531441 166.0284481 27.08203316 C167.4893856 29.24609566 167.4893856 29.24609566 167.4893856 31.24609566 C168.1493856 31.24609566 168.8093856 31.24609566 169.4893856 31.24609566 C169.4893856 31.90609566 169.4893856 32.56609566 169.4893856 33.24609566 C170.1493856 33.24609566 170.8093856 33.24609566 171.4893856 33.24609566 C173.4893856 36.24609566 173.4893856 36.24609566 173.4893856 39.24609566 C174.1493856 39.24609566 174.8093856 39.24609566 175.4893856 39.24609566 C175.4893856 39.90609566 175.4893856 40.56609566 175.4893856 41.24609566 C176.8093856 41.90609566 178.1293856 42.56609566 179.4893856 43.24609566 C179.4893856 43.90609566 179.4893856 44.56609566 179.4893856 45.24609566 C180.1493856 45.24609566 180.8093856 45.24609566 181.4893856 45.24609566 C182.4793856 47.72109566 182.4793856 47.72109566 183.4893856 50.24609566 C184.1493856 50.24609566 184.8093856 50.24609566 185.4893856 50.24609566 C185.4893856 50.90609566 185.4893856 51.56609566 185.4893856 52.24609566 C186.1493856 52.24609566 186.8093856 52.24609566 187.4893856 52.24609566 C189.2159481 54.36328316 189.2159481 54.36328316 191.1143856 57.12109566 C191.74602623 58.02601753 192.37766685 58.93093941 193.0284481 59.86328316 C194.4893856 62.24609566 194.4893856 62.24609566 194.4893856 64.24609566 C195.1493856 64.24609566 195.8093856 64.24609566 196.4893856 64.24609566 C196.4893856 64.90609566 196.4893856 65.56609566 196.4893856 66.24609566 C197.8093856 66.90609566 199.1293856 67.56609566 200.4893856 68.24609566 C200.4893856 68.90609566 200.4893856 69.56609566 200.4893856 70.24609566 C201.1493856 70.24609566 201.8093856 70.24609566 202.4893856 70.24609566 C203.1493856 71.89609566 203.8093856 73.54609566 204.4893856 75.24609566 C205.1493856 75.24609566 205.8093856 75.24609566 206.4893856 75.24609566 C206.4893856 75.90609566 206.4893856 76.56609566 206.4893856 77.24609566 C207.1493856 77.24609566 207.8093856 77.24609566 208.4893856 77.24609566 C210.02612924 79.13290831 211.45599629 81.01698649 212.8643856 82.99609566 C215.05470757 86.02884915 217.11836082 88.87886976 219.7784481 91.51172066 C221.4893856 93.24609566 221.4893856 93.24609566 221.4893856 95.24609566 C222.1493856 95.24609566 222.8093856 95.24609566 223.4893856 95.24609566 C223.4893856 96.23609566 223.4893856 97.22609566 223.4893856 98.24609566 C224.1493856 98.24609566 224.8093856 98.24609566 225.4893856 98.24609566 C225.4893856 98.90609566 225.4893856 99.56609566 225.4893856 100.24609566 C226.1493856 100.24609566 226.8093856 100.24609566 227.4893856 100.24609566 C227.4893856 100.90609566 227.4893856 101.56609566 227.4893856 102.24609566 C228.1493856 102.24609566 228.8093856 102.24609566 229.4893856 102.24609566 C230.9971981 103.92578316 230.9971981 103.92578316 232.6143856 106.12109566 C233.15321373 106.84039253 233.69204185 107.55968941 234.2471981 108.30078316 C235.4893856 110.24609566 235.4893856 110.24609566 235.4893856 112.24609566 C236.1493856 112.24609566 236.8093856 112.24609566 237.4893856 112.24609566 C242.4893856 117.72228613 242.4893856 117.72228613 242.4893856 120.24609566 C243.1493856 120.24609566 243.8093856 120.24609566 244.4893856 120.24609566 C244.4893856 121.23609566 244.4893856 122.22609566 244.4893856 123.24609566 C245.1493856 123.24609566 245.8093856 123.24609566 246.4893856 123.24609566 C246.4893856 123.90609566 246.4893856 124.56609566 246.4893856 125.24609566 C247.1493856 125.24609566 247.8093856 125.24609566 248.4893856 125.24609566 C248.4893856 125.90609566 248.4893856 126.56609566 248.4893856 127.24609566 C249.1493856 127.24609566 249.8093856 127.24609566 250.4893856 127.24609566 C254.4893856 131.59903683 254.4893856 131.59903683 254.4893856 135.24609566 C255.1493856 135.24609566 255.8093856 135.24609566 256.4893856 135.24609566 C256.4893856 135.90609566 256.4893856 136.56609566 256.4893856 137.24609566 C257.1493856 137.24609566 257.8093856 137.24609566 258.4893856 137.24609566 C258.4893856 137.90609566 258.4893856 138.56609566 258.4893856 139.24609566 C259.1493856 139.24609566 259.8093856 139.24609566 260.4893856 139.24609566 C261.7784481 140.70703316 261.7784481 140.70703316 263.1143856 142.62109566 C263.56040123 143.24758003 264.00641685 143.87406441 264.4659481 144.51953316 C265.4893856 146.24609566 265.4893856 146.24609566 265.4893856 148.24609566 C266.1493856 148.24609566 266.8093856 148.24609566 267.4893856 148.24609566 C267.4893856 148.90609566 267.4893856 149.56609566 267.4893856 150.24609566 C268.1493856 150.24609566 268.8093856 150.24609566 269.4893856 150.24609566 C269.4893856 150.90609566 269.4893856 151.56609566 269.4893856 152.24609566 C270.1493856 152.24609566 270.8093856 152.24609566 271.4893856 152.24609566 C275.4893856 157.65786036 275.4893856 157.65786036 275.4893856 160.24609566 C276.1493856 160.24609566 276.8093856 160.24609566 277.4893856 160.24609566 C277.4893856 160.90609566 277.4893856 161.56609566 277.4893856 162.24609566 C278.1493856 162.24609566 278.8093856 162.24609566 279.4893856 162.24609566 C279.4893856 162.90609566 279.4893856 163.56609566 279.4893856 164.24609566 C280.1493856 164.24609566 280.8093856 164.24609566 281.4893856 164.24609566 C283.39954185 166.32812691 283.39954185 166.32812691 285.5518856 169.05859566 C286.26473717 169.95191597 286.97758873 170.84523628 287.71204185 171.76562691 C289.4893856 174.24609566 289.4893856 174.24609566 290.4893856 177.24609566 C291.1493856 177.24609566 291.8093856 177.24609566 292.4893856 177.24609566 C296.4893856 182.65786036 296.4893856 182.65786036 296.4893856 185.24609566 C297.1493856 185.24609566 297.8093856 185.24609566 298.4893856 185.24609566 C298.4893856 185.90609566 298.4893856 186.56609566 298.4893856 187.24609566 C299.1493856 187.24609566 299.8093856 187.24609566 300.4893856 187.24609566 C300.4893856 187.90609566 300.4893856 188.56609566 300.4893856 189.24609566 C301.1493856 189.24609566 301.8093856 189.24609566 302.4893856 189.24609566 C302.4893856 189.90609566 302.4893856 190.56609566 302.4893856 191.24609566 C303.1493856 191.24609566 303.8093856 191.24609566 304.4893856 191.24609566 C305.1493856 192.89609566 305.8093856 194.54609566 306.4893856 196.24609566 C307.1493856 196.24609566 307.8093856 196.24609566 308.4893856 196.24609566 C310.2159481 198.10937691 310.2159481 198.10937691 312.1143856 200.55859566 C313.06184654 201.75935738 313.06184654 201.75935738 314.0284481 202.98437691 C315.4893856 205.24609566 315.4893856 205.24609566 315.4893856 208.24609566 C316.1493856 208.24609566 316.8093856 208.24609566 317.4893856 208.24609566 C317.4893856 208.90609566 317.4893856 209.56609566 317.4893856 210.24609566 C318.1493856 210.24609566 318.8093856 210.24609566 319.4893856 210.24609566 C319.4893856 210.90609566 319.4893856 211.56609566 319.4893856 212.24609566 C320.1493856 212.24609566 320.8093856 212.24609566 321.4893856 212.24609566 C321.4893856 212.90609566 321.4893856 213.56609566 321.4893856 214.24609566 C322.1493856 214.24609566 322.8093856 214.24609566 323.4893856 214.24609566 C323.4893856 214.90609566 323.4893856 215.56609566 323.4893856 216.24609566 C324.1493856 216.24609566 324.8093856 216.24609566 325.4893856 216.24609566 C325.4893856 217.23609566 325.4893856 218.22609566 325.4893856 219.24609566 C326.1493856 219.24609566 326.8093856 219.24609566 327.4893856 219.24609566 C327.4893856 219.90609566 327.4893856 220.56609566 327.4893856 221.24609566 C328.1493856 221.24609566 328.8093856 221.24609566 329.4893856 221.24609566 C329.4893856 221.90609566 329.4893856 222.56609566 329.4893856 223.24609566 C330.1493856 223.24609566 330.8093856 223.24609566 331.4893856 223.24609566 C333.2159481 225.36328316 333.2159481 225.36328316 335.1143856 228.12109566 C335.74602623 229.02601753 336.37766685 229.93093941 337.0284481 230.86328316 C338.4893856 233.24609566 338.4893856 233.24609566 338.4893856 235.24609566 C339.1493856 235.24609566 339.8093856 235.24609566 340.4893856 235.24609566 C340.4893856 235.90609566 340.4893856 236.56609566 340.4893856 237.24609566 C341.1493856 237.24609566 341.8093856 237.24609566 342.4893856 237.24609566 C342.4893856 237.90609566 342.4893856 238.56609566 342.4893856 239.24609566 C343.1493856 239.24609566 343.8093856 239.24609566 344.4893856 239.24609566 C345.1493856 240.89609566 345.8093856 242.54609566 346.4893856 244.24609566 C347.1493856 244.24609566 347.8093856 244.24609566 348.4893856 244.24609566 C348.4893856 244.90609566 348.4893856 245.56609566 348.4893856 246.24609566 C349.1493856 246.24609566 349.8093856 246.24609566 350.4893856 246.24609566 C350.4893856 246.90609566 350.4893856 247.56609566 350.4893856 248.24609566 C351.1493856 248.24609566 351.8093856 248.24609566 352.4893856 248.24609566 C356.4893856 253.65786036 356.4893856 253.65786036 356.4893856 256.24609566 C357.1493856 256.24609566 357.8093856 256.24609566 358.4893856 256.24609566 C358.4893856 256.90609566 358.4893856 257.56609566 358.4893856 258.24609566 C359.1493856 258.24609566 359.8093856 258.24609566 360.4893856 258.24609566 C363.4893856 261.70763412 363.4893856 261.70763412 363.4893856 264.24609566 C364.1493856 264.24609566 364.8093856 264.24609566 365.4893856 264.24609566 C366.1493856 265.89609566 366.8093856 267.54609566 367.4893856 269.24609566 C368.1493856 269.24609566 368.8093856 269.24609566 369.4893856 269.24609566 C369.4893856 269.90609566 369.4893856 270.56609566 369.4893856 271.24609566 C370.1493856 271.24609566 370.8093856 271.24609566 371.4893856 271.24609566 C371.4893856 271.90609566 371.4893856 272.56609566 371.4893856 273.24609566 C372.1493856 273.24609566 372.8093856 273.24609566 373.4893856 273.24609566 C377.4893856 278.65786036 377.4893856 278.65786036 377.4893856 281.24609566 C378.1493856 281.24609566 378.8093856 281.24609566 379.4893856 281.24609566 C379.4893856 281.90609566 379.4893856 282.56609566 379.4893856 283.24609566 C380.1493856 283.24609566 380.8093856 283.24609566 381.4893856 283.24609566 C383.2159481 285.14453316 383.2159481 285.14453316 385.1143856 287.62109566 C385.74602623 288.43320503 386.37766685 289.24531441 387.0284481 290.08203316 C388.4893856 292.24609566 388.4893856 292.24609566 388.4893856 294.24609566 C389.1493856 294.24609566 389.8093856 294.24609566 390.4893856 294.24609566 C390.4893856 294.90609566 390.4893856 295.56609566 390.4893856 296.24609566 C391.1493856 296.24609566 391.8093856 296.24609566 392.4893856 296.24609566 C392.4893856 296.90609566 392.4893856 297.56609566 392.4893856 298.24609566 C393.1493856 298.24609566 393.8093856 298.24609566 394.4893856 298.24609566 C398.4893856 303.65786036 398.4893856 303.65786036 398.4893856 306.24609566 C399.1493856 306.24609566 399.8093856 306.24609566 400.4893856 306.24609566 C400.4893856 306.90609566 400.4893856 307.56609566 400.4893856 308.24609566 C401.1493856 308.24609566 401.8093856 308.24609566 402.4893856 308.24609566 C404.39954185 310.32812691 404.39954185 310.32812691 406.5518856 313.05859566 C407.26473717 313.95191597 407.97758873 314.84523628 408.71204185 315.76562691 C410.4893856 318.24609566 410.4893856 318.24609566 411.4893856 321.24609566 C412.1493856 321.24609566 412.8093856 321.24609566 413.4893856 321.24609566 C417.4893856 326.65786036 417.4893856 326.65786036 417.4893856 329.24609566 C418.1493856 329.24609566 418.8093856 329.24609566 419.4893856 329.24609566 C419.4893856 329.90609566 419.4893856 330.56609566 419.4893856 331.24609566 C420.1493856 331.24609566 420.8093856 331.24609566 421.4893856 331.24609566 C421.4893856 331.90609566 421.4893856 332.56609566 421.4893856 333.24609566 C422.1493856 333.24609566 422.8093856 333.24609566 423.4893856 333.24609566 C425.18860435 335.11718941 425.18860435 335.11718941 427.1768856 337.68359566 C427.88200279 338.58980659 428.58711998 339.49601753 429.31360435 340.42968941 C430.03161217 341.35910347 430.74961998 342.28851753 431.4893856 343.24609566 C432.17645592 344.10332222 432.86352623 344.96054878 433.57141685 345.84375191 C434.20434654 346.63652534 434.83727623 347.42929878 435.4893856 348.24609566 C436.3556356 349.32890816 436.3556356 349.32890816 437.2393856 350.43359566 C438.4893856 352.24609566 438.4893856 352.24609566 438.4893856 354.24609566 C439.1493856 354.24609566 439.8093856 354.24609566 440.4893856 354.24609566 C440.4893856 354.90609566 440.4893856 355.56609566 440.4893856 356.24609566 C441.1493856 356.24609566 441.8093856 356.24609566 442.4893856 356.24609566 C442.4893856 356.90609566 442.4893856 357.56609566 442.4893856 358.24609566 C443.1493856 358.24609566 443.8093856 358.24609566 444.4893856 358.24609566 C446.18860435 360.11718941 446.18860435 360.11718941 448.1768856 362.68359566 C448.88200279 363.58980659 449.58711998 364.49601753 450.31360435 365.42968941 C451.03161217 366.35910347 451.74961998 367.28851753 452.4893856 368.24609566 C453.17645592 369.10332222 453.86352623 369.96054878 454.57141685 370.84375191 C455.20434654 371.63652534 455.83727623 372.42929878 456.4893856 373.24609566 C457.3556356 374.32890816 457.3556356 374.32890816 458.2393856 375.43359566 C459.4893856 377.24609566 459.4893856 377.24609566 459.4893856 379.24609566 C460.1493856 379.24609566 460.8093856 379.24609566 461.4893856 379.24609566 C461.4893856 379.90609566 461.4893856 380.56609566 461.4893856 381.24609566 C462.1493856 381.24609566 462.8093856 381.24609566 463.4893856 381.24609566 C463.4893856 381.90609566 463.4893856 382.56609566 463.4893856 383.24609566 C464.1493856 383.24609566 464.8093856 383.24609566 465.4893856 383.24609566 C466.1493856 384.89609566 466.8093856 386.54609566 467.4893856 388.24609566 C468.1493856 388.24609566 468.8093856 388.24609566 469.4893856 388.24609566 C469.4893856 388.90609566 469.4893856 389.56609566 469.4893856 390.24609566 C470.1493856 390.24609566 470.8093856 390.24609566 471.4893856 390.24609566 C473.40631427 392.45884665 475.20910188 394.67758662 476.9893856 396.99609566 C477.48825279 397.63031441 477.98711998 398.26453316 478.50110435 398.91797066 C480.84709103 401.93693474 482.85187738 404.77541407 484.4893856 408.24609566 C485.1493856 408.24609566 485.8093856 408.24609566 486.4893856 408.24609566 C487.1493856 409.89609566 487.8093856 411.54609566 488.4893856 413.24609566 C489.1493856 413.24609566 489.8093856 413.24609566 490.4893856 413.24609566 C490.4893856 413.90609566 490.4893856 414.56609566 490.4893856 415.24609566 C491.1493856 415.24609566 491.8093856 415.24609566 492.4893856 415.24609566 C493.9971981 416.92578316 493.9971981 416.92578316 495.6143856 419.12109566 C496.15321373 419.84039253 496.69204185 420.55968941 497.2471981 421.30078316 C498.4893856 423.24609566 498.4893856 423.24609566 498.4893856 425.24609566 C499.1493856 425.24609566 499.8093856 425.24609566 500.4893856 425.24609566 C500.4893856 425.90609566 500.4893856 426.56609566 500.4893856 427.24609566 C501.1493856 427.24609566 501.8093856 427.24609566 502.4893856 427.24609566 C504.2159481 429.14453316 504.2159481 429.14453316 506.1143856 431.62109566 C506.74602623 432.43320503 507.37766685 433.24531441 508.0284481 434.08203316 C509.4893856 436.24609566 509.4893856 436.24609566 509.4893856 438.24609566 C510.1493856 438.24609566 510.8093856 438.24609566 511.4893856 438.24609566 C511.4893856 438.90609566 511.4893856 439.56609566 511.4893856 440.24609566 C512.1493856 440.24609566 512.8093856 440.24609566 513.4893856 440.24609566 C514.9971981 441.92578316 514.9971981 441.92578316 516.6143856 444.12109566 C517.15321373 444.84039253 517.69204185 445.55968941 518.2471981 446.30078316 C519.4893856 448.24609566 519.4893856 448.24609566 519.4893856 450.24609566 C520.1493856 450.24609566 520.8093856 450.24609566 521.4893856 450.24609566 C521.4893856 450.90609566 521.4893856 451.56609566 521.4893856 452.24609566 C522.1493856 452.24609566 522.8093856 452.24609566 523.4893856 452.24609566 C525.09572576 453.98001517 526.6269143 455.78418665 528.1143856 457.62109566 C528.93165123 458.61883003 529.74891685 459.61656441 530.5909481 460.64453316 C532.4893856 463.24609566 532.4893856 463.24609566 532.4893856 465.24609566 C533.1493856 465.24609566 533.8093856 465.24609566 534.4893856 465.24609566 C535.9971981 466.92578316 535.9971981 466.92578316 537.6143856 469.12109566 C538.15321373 469.84039253 538.69204185 470.55968941 539.2471981 471.30078316 C540.4893856 473.24609566 540.4893856 473.24609566 540.4893856 475.24609566 C541.1493856 475.24609566 541.8093856 475.24609566 542.4893856 475.24609566 C542.4893856 475.90609566 542.4893856 476.56609566 542.4893856 477.24609566 C543.1493856 477.24609566 543.8093856 477.24609566 544.4893856 477.24609566 C544.4893856 477.90609566 544.4893856 478.56609566 544.4893856 479.24609566 C545.1493856 479.24609566 545.8093856 479.24609566 546.4893856 479.24609566 C547.1493856 480.89609566 547.8093856 482.54609566 548.4893856 484.24609566 C549.1493856 484.24609566 549.8093856 484.24609566 550.4893856 484.24609566 C552.09800292 485.95634042 553.62876903 487.74048394 555.1143856 489.55859566 C555.93165123 490.54472847 556.74891685 491.53086128 557.5909481 492.54687691 C559.4893856 495.24609566 559.4893856 495.24609566 559.4893856 498.24609566 C560.1493856 498.24609566 560.8093856 498.24609566 561.4893856 498.24609566 C561.4893856 498.90609566 561.4893856 499.56609566 561.4893856 500.24609566 C562.1493856 500.24609566 562.8093856 500.24609566 563.4893856 500.24609566 C563.4893856 500.90609566 563.4893856 501.56609566 563.4893856 502.24609566 C564.1493856 502.24609566 564.8093856 502.24609566 565.4893856 502.24609566 C565.4893856 502.90609566 565.4893856 503.56609566 565.4893856 504.24609566 C566.1493856 504.24609566 566.8093856 504.24609566 567.4893856 504.24609566 C568.1493856 505.89609566 568.8093856 507.54609566 569.4893856 509.24609566 C570.1493856 509.24609566 570.8093856 509.24609566 571.4893856 509.24609566 C572.86421012 510.77562442 574.16604458 512.37132472 575.4268856 513.99609566 C576.11653404 514.87781441 576.80618248 515.75953316 577.51672935 516.66797066 C578.16770592 517.51875191 578.81868248 518.36953316 579.4893856 519.24609566 C580.06817467 519.97312691 580.64696373 520.70015816 581.24329185 521.44922066 C582.4893856 523.24609566 582.4893856 523.24609566 582.4893856 525.24609566 C583.1493856 525.24609566 583.8093856 525.24609566 584.4893856 525.24609566 C584.4893856 525.90609566 584.4893856 526.56609566 584.4893856 527.24609566 C585.1493856 527.24609566 585.8093856 527.24609566 586.4893856 527.24609566 C586.4893856 527.90609566 586.4893856 528.56609566 586.4893856 529.24609566 C587.1493856 529.24609566 587.8093856 529.24609566 588.4893856 529.24609566 C589.1493856 530.89609566 589.8093856 532.54609566 590.4893856 534.24609566 C591.1493856 534.24609566 591.8093856 534.24609566 592.4893856 534.24609566 C594.4346981 536.36328316 594.4346981 536.36328316 596.6143856 539.12109566 C597.33883873 540.02601753 598.06329185 540.93093941 598.8096981 541.86328316 C600.4893856 544.24609566 600.4893856 544.24609566 600.4893856 546.24609566 C601.1493856 546.24609566 601.8093856 546.24609566 602.4893856 546.24609566 C605.4893856 549.70763412 605.4893856 549.70763412 605.4893856 552.24609566 C606.1493856 552.24609566 606.8093856 552.24609566 607.4893856 552.24609566 C607.4893856 552.90609566 607.4893856 553.56609566 607.4893856 554.24609566 C608.1493856 554.24609566 608.8093856 554.24609566 609.4893856 554.24609566 C610.1493856 555.89609566 610.8093856 557.54609566 611.4893856 559.24609566 C612.1493856 559.24609566 612.8093856 559.24609566 613.4893856 559.24609566 C613.4893856 559.90609566 613.4893856 560.56609566 613.4893856 561.24609566 C614.1493856 561.24609566 614.8093856 561.24609566 615.4893856 561.24609566 C616.9971981 562.92578316 616.9971981 562.92578316 618.6143856 565.12109566 C619.15321373 565.84039253 619.69204185 566.55968941 620.2471981 567.30078316 C621.4893856 569.24609566 621.4893856 569.24609566 621.4893856 571.24609566 C622.1493856 571.24609566 622.8093856 571.24609566 623.4893856 571.24609566 C625.2159481 573.14453316 625.2159481 573.14453316 627.1143856 575.62109566 C627.74602623 576.43320503 628.37766685 577.24531441 629.0284481 578.08203316 C630.4893856 580.24609566 630.4893856 580.24609566 630.4893856 582.24609566 C631.1493856 582.24609566 631.8093856 582.24609566 632.4893856 582.24609566 C632.4893856 582.90609566 632.4893856 583.56609566 632.4893856 584.24609566 C633.1493856 584.24609566 633.8093856 584.24609566 634.4893856 584.24609566 C634.4893856 584.90609566 634.4893856 585.56609566 634.4893856 586.24609566 C635.1493856 586.24609566 635.8093856 586.24609566 636.4893856 586.24609566 C637.9971981 587.92578316 637.9971981 587.92578316 639.6143856 590.12109566 C640.15321373 590.84039253 640.69204185 591.55968941 641.2471981 592.30078316 C642.4893856 594.24609566 642.4893856 594.24609566 642.4893856 596.24609566 C643.1493856 596.24609566 643.8093856 596.24609566 644.4893856 596.24609566 C644.4893856 596.90609566 644.4893856 597.56609566 644.4893856 598.24609566 C645.1493856 598.24609566 645.8093856 598.24609566 646.4893856 598.24609566 C648.2159481 600.14453316 648.2159481 600.14453316 650.1143856 602.62109566 C650.74602623 603.43320503 651.37766685 604.24531441 652.0284481 605.08203316 C653.4893856 607.24609566 653.4893856 607.24609566 653.4893856 609.24609566 C654.1493856 609.24609566 654.8093856 609.24609566 655.4893856 609.24609566 C656.9971981 610.92578316 656.9971981 610.92578316 658.6143856 613.12109566 C659.15321373 613.84039253 659.69204185 614.55968941 660.2471981 615.30078316 C661.4893856 617.24609566 661.4893856 617.24609566 661.4893856 619.24609566 C662.1493856 619.24609566 662.8093856 619.24609566 663.4893856 619.24609566 C663.4893856 619.90609566 663.4893856 620.56609566 663.4893856 621.24609566 C664.1493856 621.24609566 664.8093856 621.24609566 665.4893856 621.24609566 C665.4893856 621.90609566 665.4893856 622.56609566 665.4893856 623.24609566 C666.1493856 623.24609566 666.8093856 623.24609566 667.4893856 623.24609566 C668.8195965 624.75836633 670.07966151 626.3327859 671.3018856 627.93359566 C674.15111204 631.65357214 677.15448786 634.95596164 680.4893856 638.24609566 C680.48922962 637.69428033 680.48907364 637.14246501 680.48891294 636.57392801 C680.47197449 576.5252693 680.45626799 516.47661034 680.44704247 456.42794991 C680.44690441 455.53163294 680.44676635 454.63531598 680.44662411 453.7118379 C680.44363153 434.23465943 680.4408613 414.75748094 680.43832028 395.28030241 C680.43707289 385.72934937 680.43577634 376.17839634 680.43445396 366.62744331 C680.43425783 365.20175566 680.43425783 365.20175566 680.43405772 363.74726624 C680.4297928 332.91409402 680.42227883 302.08092362 680.41308838 271.24775251 C680.40366481 239.57509039 680.39750226 207.90242929 680.39547061 176.22976579 C680.39518244 171.76104602 680.3948568 167.29232626 680.39450836 162.82360649 C680.39444094 161.94405763 680.39437352 161.06450877 680.39430405 160.15830692 C680.39312017 145.97316619 680.3884763 131.78802858 680.38255357 117.60288913 C680.37667931 103.35829584 680.37441436 89.11370566 680.37588423 74.8691112 C680.37664752 66.39563941 680.37459295 57.92217896 680.36858806 49.44870921 C680.36441917 43.13747401 680.36541199 36.82624988 680.36848671 30.51501428 C680.36891237 27.94971943 680.36761689 25.38442366 680.36450242 22.81913067 C680.36053772 19.35434741 680.36262272 15.88962125 680.36633778 12.42483902 C680.36371076 11.40972935 680.36108375 10.39461967 680.35837713 9.3487491 C680.36062442 8.43260117 680.36287172 7.51645325 680.36518711 6.57254326 C680.36503113 5.77922581 680.36487515 4.98590835 680.36471444 4.16855098 C680.4893856 2.24609566 680.4893856 2.24609566 681.4893856 0.24609566 C697.24855304 0.22276635 713.00771584 0.20511633 728.76689625 0.19428349 C736.08365963 0.1891206 743.4004123 0.18207803 750.71716881 0.1706562 C757.09221579 0.16070915 763.46725501 0.15424218 769.84230953 0.15200716 C773.21986574 0.15070009 776.59739976 0.14761447 779.97494888 0.1403656 C783.73945903 0.13315953 787.50392246 0.13210453 791.26843834 0.13257027 C792.39628242 0.12897499 793.52412651 0.12537971 794.68614769 0.12167549 C796.21537865 0.12373749 796.21537865 0.12373749 797.77550316 0.12584114 C798.66687697 0.12491935 799.55825079 0.12399755 800.47663593 0.12304783 C802.4893856 0.24609566 802.4893856 0.24609566 803.4893856 1.24609566 C803.58722297 3.00582496 803.61385782 4.76953075 803.6135841 6.53197771 C803.61583139 7.68812585 803.61807869 8.84427399 803.62039408 10.03545693 C803.61645356 11.96876353 803.61645356 11.96876353 803.61243343 13.94112682 C803.61317219 15.31516213 803.61434982 16.68919726 803.61592993 18.06323186 C803.61901937 21.87363855 803.61580704 25.68401886 803.6116518 29.4944236 C803.60823489 33.62669827 803.61058508 37.75897011 803.61222929 41.89124531 C803.61430911 49.14500251 803.61264893 56.39875153 803.60859108 63.65250778 C803.60257383 74.4387 803.60225362 85.22488703 803.60313307 96.01108062 C803.60444924 114.15223652 803.60109695 132.29338878 803.59511566 150.43454361 C803.58920562 168.40552539 803.58535113 186.37650566 803.58426285 204.3474884 C803.58419411 205.46342882 803.58412537 206.57936924 803.58405455 207.72912603 C803.58371623 213.39605323 803.58341484 219.06298043 803.58312767 224.72990762 C803.58102533 264.90481964 803.57428259 305.07972968 803.56482506 345.25464058 C803.5556458 384.29240089 803.54855965 423.33016066 803.54431725 462.36792183 C803.54411996 464.17179705 803.54411996 464.17179705 803.54391868 466.0121142 C803.5426002 478.08857152 803.54132438 490.16502884 803.54007982 502.24148616 C803.53754337 526.84425458 803.53472212 551.44702297 803.53172874 576.04979134 C803.53159145 577.18107263 803.53145416 578.31235392 803.53131271 579.47791647 C803.52418017 638.04222977 803.51281881 696.60654216 803.500494 755.17085457 C803.5002339 756.40701901 803.5002339 756.40701901 803.49996854 757.66815647 C803.49655377 773.86080289 803.49295181 790.05344927 803.4893856 806.24609566 C754.9793856 806.24609566 706.4693856 806.24609566 656.4893856 806.24609566 C655.8293856 804.92609566 655.1693856 803.60609566 654.4893856 802.24609566 C653.8293856 802.24609566 653.1693856 802.24609566 652.4893856 802.24609566 C652.4893856 801.58609566 652.4893856 800.92609566 652.4893856 800.24609566 C651.8293856 800.24609566 651.1693856 800.24609566 650.4893856 800.24609566 C647.4893856 796.7845572 647.4893856 796.7845572 647.4893856 794.24609566 C646.8293856 794.24609566 646.1693856 794.24609566 645.4893856 794.24609566 C643.55100701 792.01268226 641.72752041 789.77372924 639.9268856 787.43359566 C639.41963951 786.790998 638.91239342 786.14840034 638.38977623 785.48633003 C636.21885678 782.69679971 634.61946329 780.6363287 633.4893856 777.24609566 C632.8293856 777.24609566 632.1693856 777.24609566 631.4893856 777.24609566 C631.4893856 776.58609566 631.4893856 775.92609566 631.4893856 775.24609566 C630.8293856 775.24609566 630.1693856 775.24609566 629.4893856 775.24609566 C628.0440731 773.59375191 628.0440731 773.59375191 626.3643856 771.30859566 C623.79886348 767.90753815 621.15054735 764.66423349 618.3018856 761.49609566 C610.4893856 752.80374129 610.4893856 752.80374129 610.4893856 750.24609566 C609.8293856 750.24609566 609.1693856 750.24609566 608.4893856 750.24609566 C607.00891685 748.55859566 607.00891685 748.55859566 605.3018856 746.24609566 C602.30774018 742.26438546 599.14485245 738.54160355 595.77454185 734.87500191 C594.4893856 733.24609566 594.4893856 733.24609566 594.4893856 731.24609566 C593.8293856 731.24609566 593.1693856 731.24609566 592.4893856 731.24609566 C590.70550591 729.13487103 589.02535638 727.01347885 587.3643856 724.80859566 C583.39852521 719.63099926 579.31900175 714.67967439 574.85266685 709.91797066 C573.4893856 708.24609566 573.4893856 708.24609566 573.4893856 706.24609566 C572.8293856 706.24609566 572.1693856 706.24609566 571.4893856 706.24609566 C569.70550591 704.13487103 568.02535638 702.01347885 566.3643856 699.80859566 C562.39852521 694.63099926 558.31900175 689.67967439 553.85266685 684.91797066 C552.4893856 683.24609566 552.4893856 683.24609566 552.4893856 681.24609566 C551.8293856 681.24609566 551.1693856 681.24609566 550.4893856 681.24609566 C549.09339165 679.71772296 547.77350911 678.11959467 546.4893856 676.49609566 C545.69661217 675.50222847 544.90383873 674.50836128 544.08704185 673.48437691 C543.66696861 672.95666695 543.24689537 672.42895699 542.81409264 671.88525581 C541.45755765 670.20671252 540.07171369 668.55756521 538.67297935 666.91406441 C538.21471764 666.37426949 537.75645592 665.83447456 537.28430748 665.27832222 C535.97819987 663.74388069 534.66939401 662.21173716 533.36047935 660.67968941 C531.4893856 658.24609566 531.4893856 658.24609566 531.4893856 656.24609566 C530.8293856 656.24609566 530.1693856 656.24609566 529.4893856 656.24609566 C527.92505774 654.55335282 526.43609989 652.79039713 524.9893856 650.99609566 C524.1953231 650.02156441 523.4012606 649.04703316 522.5831356 648.04297066 C520.90190527 645.79714804 519.60802662 643.79951536 518.4893856 641.24609566 C517.8293856 641.24609566 517.1693856 641.24609566 516.4893856 641.24609566 C514.9815731 639.56640816 514.9815731 639.56640816 513.3643856 637.37109566 C512.82555748 636.65179878 512.28672935 635.93250191 511.7315731 635.19140816 C510.4893856 633.24609566 510.4893856 633.24609566 510.4893856 631.24609566 C509.8293856 631.24609566 509.1693856 631.24609566 508.4893856 631.24609566 C507.03278584 629.63226618 505.64889609 627.9524635 504.3018856 626.24609566 C501.5061422 622.75029451 498.70326992 619.28832186 495.7393856 615.93359566 C495.18637779 615.30582222 494.63336998 614.67804878 494.06360435 614.03125191 C493.54411217 613.44215034 493.02461998 612.85304878 492.4893856 612.24609566 C487.4893856 606.56255135 487.4893856 606.56255135 487.4893856 604.24609566 C486.8293856 604.24609566 486.1693856 604.24609566 485.4893856 604.24609566 C484.2628231 602.81250191 484.2628231 602.81250191 482.8643856 600.80859566 C479.3804654 595.99584525 475.46032236 591.65734162 471.4893856 587.24609566 C466.4893856 581.59549325 466.4893856 581.59549325 466.4893856 579.24609566 C465.8293856 579.24609566 465.1693856 579.24609566 464.4893856 579.24609566 C463.2628231 577.81250191 463.2628231 577.81250191 461.8643856 575.80859566 C459.60806548 572.69454609 457.25634572 569.78593279 454.6768856 566.93359566 C450.9348745 562.78685091 447.38959555 558.50924773 443.87610435 554.16797066 C442.16759199 552.07637123 440.44581771 550.00592431 438.69641685 547.94922066 C438.23477135 547.40435005 437.77312584 546.85947945 437.29749107 546.29809761 C435.98830649 544.75594626 434.67450425 543.21771855 433.36047935 541.67968941 C431.4893856 539.24609566 431.4893856 539.24609566 431.4893856 537.24609566 C430.8293856 537.24609566 430.1693856 537.24609566 429.4893856 537.24609566 C429.4893856 536.58609566 429.4893856 535.92609566 429.4893856 535.24609566 C428.8293856 535.24609566 428.1693856 535.24609566 427.4893856 535.24609566 C425.66235099 533.09365782 423.94020603 530.93247396 422.2393856 528.68359566 C421.24980878 527.39482938 420.25893489 526.10705796 419.26672935 524.82031441 C418.7896151 524.20075874 418.31250084 523.58120308 417.82092857 522.942873 C416.21608809 520.89783425 414.52897734 518.93855615 412.8018856 516.99609566 C410.4893856 514.24609566 410.4893856 514.24609566 410.4893856 512.24609566 C409.8293856 512.24609566 409.1693856 512.24609566 408.4893856 512.24609566 C408.4893856 511.58609566 408.4893856 510.92609566 408.4893856 510.24609566 C407.8293856 510.24609566 407.1693856 510.24609566 406.4893856 510.24609566 C404.86047935 508.44531441 404.86047935 508.44531441 402.9268856 505.93359566 C399.11392312 501.02921639 395.17492241 496.2505178 391.1768856 491.49609566 C389.4893856 489.24609566 389.4893856 489.24609566 389.4893856 487.24609566 C388.8293856 487.24609566 388.1693856 487.24609566 387.4893856 487.24609566 C387.4893856 486.58609566 387.4893856 485.92609566 387.4893856 485.24609566 C386.8293856 485.24609566 386.1693856 485.24609566 385.4893856 485.24609566 C383.93079185 483.51562691 383.93079185 483.51562691 382.0518856 481.05859566 C378.18366589 476.0790642 374.14587562 471.2828905 369.99548912 466.53833199 C366.4893856 462.46450869 366.4893856 462.46450869 366.4893856 460.24609566 C365.8293856 460.24609566 365.1693856 460.24609566 364.4893856 460.24609566 C363.00891685 458.55859566 363.00891685 458.55859566 361.3018856 456.24609566 C358.30774018 452.26438546 355.14485245 448.54160355 351.77454185 444.87500191 C350.4893856 443.24609566 350.4893856 443.24609566 350.4893856 441.24609566 C349.8293856 441.24609566 349.1693856 441.24609566 348.4893856 441.24609566 C346.70550591 439.13487103 345.02535638 437.01347885 343.3643856 434.80859566 C339.39852521 429.63099926 335.31900175 424.67967439 330.85266685 419.91797066 C329.4893856 418.24609566 329.4893856 418.24609566 329.4893856 416.24609566 C328.8293856 416.24609566 328.1693856 416.24609566 327.4893856 416.24609566 C325.70550591 414.13487103 324.02535638 412.01347885 322.3643856 409.80859566 C318.39852521 404.63099926 314.31900175 399.67967439 309.85266685 394.91797066 C308.4893856 393.24609566 308.4893856 393.24609566 308.4893856 391.24609566 C307.8293856 391.24609566 307.1693856 391.24609566 306.4893856 391.24609566 C304.5440731 389.12890816 304.5440731 389.12890816 302.3643856 386.37109566 C301.63993248 385.46617378 300.91547935 384.56125191 300.1690731 383.62890816 C298.4893856 381.24609566 298.4893856 381.24609566 298.4893856 379.24609566 C297.8293856 379.24609566 297.1693856 379.24609566 296.4893856 379.24609566 C294.88304545 377.51217614 293.35185691 375.70800466 291.8643856 373.87109566 C291.04711998 372.87336128 290.22985435 371.87562691 289.3878231 370.84765816 C287.4893856 368.24609566 287.4893856 368.24609566 287.4893856 366.24609566 C286.8293856 366.24609566 286.1693856 366.24609566 285.4893856 366.24609566 C283.5440731 364.12890816 283.5440731 364.12890816 281.3643856 361.37109566 C280.63993248 360.46617378 279.91547935 359.56125191 279.1690731 358.62890816 C277.4893856 356.24609566 277.4893856 356.24609566 277.4893856 354.24609566 C276.8293856 354.24609566 276.1693856 354.24609566 275.4893856 354.24609566 C273.88304545 352.51217614 272.35185691 350.70800466 270.8643856 348.87109566 C270.04711998 347.87336128 269.22985435 346.87562691 268.3878231 345.84765816 C266.4893856 343.24609566 266.4893856 343.24609566 266.4893856 341.24609566 C265.8293856 341.24609566 265.1693856 341.24609566 264.4893856 341.24609566 C262.90404858 339.53276812 261.39397346 337.74920518 259.9268856 335.93359566 C259.12122154 334.94746284 258.31555748 333.96133003 257.48547935 332.94531441 C255.4893856 330.24609566 255.4893856 330.24609566 254.4893856 327.24609566 C253.8293856 327.24609566 253.1693856 327.24609566 252.4893856 327.24609566 C250.86047935 325.44531441 250.86047935 325.44531441 248.9268856 322.93359566 C248.21403404 322.02093941 247.50118248 321.10828316 246.76672935 320.16797066 C246.01520592 319.20375191 245.26368248 318.23953316 244.4893856 317.24609566 C239.63857603 311.20578321 234.68429869 305.29949309 229.5050106 299.53906441 C226.56379808 296.19315016 223.77989915 292.72491839 220.9737606 289.26562691 C218.1918627 285.8844837 215.348117 282.56222407 212.4893856 279.24609566 C208.241557 274.31309057 204.06491937 269.33289353 199.9581356 264.28125191 C191.35977838 253.71017032 182.67275333 243.21543147 173.84241295 232.83740425 C171.42848095 229.9983554 169.02172934 227.15323072 166.6143856 224.30859566 C166.17392906 223.7887812 165.73347252 223.26896675 165.27966881 222.73340034 C164.01445974 221.23913857 162.75190363 219.74263182 161.4893856 218.24609566 C161.01726646 217.70452827 160.54514732 217.16296089 160.05872154 216.60498238 C156.4893856 212.46249587 156.4893856 212.46249587 156.4893856 210.24609566 C155.8293856 210.24609566 155.1693856 210.24609566 154.4893856 210.24609566 C152.70550591 208.13487103 151.02535638 206.01347885 149.3643856 203.80859566 C145.39852521 198.63099926 141.31900175 193.67967439 136.85266685 188.91797066 C135.4893856 187.24609566 135.4893856 187.24609566 135.4893856 185.24609566 C134.8293856 185.24609566 134.1693856 185.24609566 133.4893856 185.24609566 C131.88304545 183.51217614 130.35185691 181.70800466 128.8643856 179.87109566 C128.04711998 178.87336128 127.22985435 177.87562691 126.3878231 176.84765816 C124.4893856 174.24609566 124.4893856 174.24609566 124.4893856 172.24609566 C123.8293856 172.24609566 123.1693856 172.24609566 122.4893856 172.24609566 C121.8293856 171.25609566 121.1693856 170.26609566 120.4893856 169.24609566 C120.1593856 379.45609566 119.8293856 589.66609566 119.4893856 806.24609566 C78.8993856 806.24609566 38.3093856 806.24609566 -3.5106144 806.24609566 C-5.22112911 804.53558094 -4.63643378 802.31293496 -4.63711423 799.975339 C-4.63987397 798.82257014 -4.64263371 797.66980128 -4.64547709 796.48210004 C-4.64239411 794.55446402 -4.64239411 794.55446402 -4.63924885 792.58788586 C-4.6405937 791.21786646 -4.64237656 789.84784744 -4.64456108 788.47782913 C-4.64932347 784.67856153 -4.64777905 780.87931768 -4.64528331 777.08004886 C-4.64365925 772.95981591 -4.6477835 768.83958825 -4.65119249 764.71935695 C-4.65636253 757.48668658 -4.65776092 750.2540229 -4.65673637 743.02135086 C-4.65521656 732.26640367 -4.65936179 721.51146393 -4.664611 710.75651819 C-4.67430196 690.43455047 -4.67709589 670.11258526 -4.67766806 649.79061551 C-4.67812688 634.10272456 -4.68018143 618.4148346 -4.68336868 602.72694397 C-4.68426617 598.21792426 -4.68515598 593.70890455 -4.68604356 589.19988483 C-4.68626461 588.07906243 -4.68648566 586.95824002 -4.6867134 585.8034533 C-4.69287099 554.25996621 -4.69681362 522.71647947 -4.69637012 491.17299175 C-4.69635455 489.98277142 -4.69633897 488.79255108 -4.69632292 487.56626346 C-4.6962398 481.53316114 -4.69614076 475.50005882 -4.69603821 469.4669565 C-4.69601826 468.26867069 -4.69599832 467.07038487 -4.69597777 465.83578736 C-4.69593733 463.41256003 -4.69589553 460.98933269 -4.69585238 458.56610536 C-4.6952394 420.85095179 -4.70274892 383.1358072 -4.71642494 345.4206562 C-4.73176832 303.08945826 -4.74039223 260.75826622 -4.73946172 218.42706531 C-4.73938708 213.91773125 -4.73933838 209.40839718 -4.7393074 204.89906311 C-4.73929575 203.78867462 -4.73928409 202.67828613 -4.73927209 201.53424951 C-4.73924125 183.62518015 -4.74564111 165.71611857 -4.75423967 147.80705153 C-4.76269528 129.82444513 -4.76372258 111.84185015 -4.75713035 93.85924286 C-4.7534207 83.16175092 -4.75530896 72.46429357 -4.76507269 61.76680525 C-4.77103582 54.63364006 -4.76981848 47.50050014 -4.76260219 40.36733614 C-4.75868938 36.29483602 -4.7580338 32.22240324 -4.76605954 28.14990766 C-4.77328329 24.45225256 -4.77146786 20.75472152 -4.76213567 17.05707215 C-4.75957554 15.08572103 -4.76692332 13.11436485 -4.77455845 11.14302686 C-4.76980764 9.98775448 -4.76505683 8.83248211 -4.76016206 7.64220148 C-4.76025028 6.64071765 -4.7603385 5.63923382 -4.76042939 4.607402 C-4.3980041 1.18167835 -3.40139404 0.33341174 0 0 Z " fill="#FEFEFE" transform="translate(1436.5106143951416,591.7539043426514)"/>
<path d="M0 0 C1.50653886 0.00023397 1.50653886 0.00023397 3.04351285 0.00047267 C4.77773506 -0.00289827 4.77773506 -0.00289827 6.54699206 -0.00633731 C8.48029866 -0.00239679 8.48029866 -0.00239679 10.45266196 0.00162334 C11.82669726 0.00088458 13.20073239 -0.00029305 14.57476699 -0.00187316 C18.38517368 -0.0049626 22.19555399 -0.00175027 26.00595873 0.00240497 C30.1382334 0.00582188 34.27050524 0.00347169 38.40278044 0.00182748 C45.65653764 -0.00025234 52.91028666 0.00140784 60.16404292 0.00546569 C70.95023514 0.01148294 81.73642217 0.01180315 92.52261576 0.0109237 C110.66377165 0.00960753 128.80492391 0.01295982 146.94607874 0.01894111 C164.91706052 0.02485115 182.88804079 0.02870564 200.85902354 0.02979392 C202.53293416 0.02989703 202.53293416 0.02989703 204.24066117 0.03000222 C209.90758836 0.03034054 215.57451556 0.03064193 221.24144276 0.0309291 C261.41635477 0.03303144 301.59126481 0.03977418 341.76617571 0.04923171 C380.80393602 0.05841097 419.84169579 0.06549712 458.87945696 0.06973952 C460.08204045 0.06987105 461.28462393 0.07000258 462.52364934 0.07013809 C474.60010665 0.07145657 486.67656397 0.07273239 498.75302129 0.07397695 C523.35578971 0.0765134 547.9585581 0.07933465 572.56132647 0.08232803 C574.25824841 0.08253396 574.25824841 0.08253396 575.9894516 0.08274406 C634.5537649 0.0898766 693.11807729 0.10123796 751.6823897 0.11356277 C752.50649933 0.11373617 753.33060896 0.11390957 754.17969161 0.11408823 C770.37233803 0.117503 786.5649844 0.12110496 802.75763079 0.12467116 C802.75763079 40.38467116 802.75763079 80.64467116 802.75763079 122.12467116 C690.22763079 122.12467116 577.69763079 122.12467116 461.75763079 122.12467116 C461.76923235 171.4171321 461.78083392 220.70959304 461.79278704 271.49576491 C461.79758846 300.76054188 461.8023225 330.02531853 461.80579576 359.29009563 C461.80783707 376.44639749 461.80992505 393.60269935 461.81215679 410.75900119 C461.81242662 412.83432398 461.812695 414.90964678 461.81296188 416.98496957 C461.8172327 450.10049226 461.82473944 483.21601325 461.83392801 516.33153491 C461.84335046 550.3515274 461.84951388 584.37151896 461.85154578 618.39151274 C461.85183396 623.19083625 461.8521596 627.99015975 461.85250803 632.78948325 C461.85257546 633.73410761 461.85264288 634.67873196 461.85271235 635.6519813 C461.85389647 650.88989052 461.85854099 666.12779684 461.86446283 681.36570488 C461.87033547 696.66551625 461.87260245 711.96532473 461.87113217 727.26513719 C461.87036857 736.36758408 461.87242615 745.47002043 461.87842833 754.57246543 C461.88215854 760.64117654 461.88230844 766.7098807 461.87946261 772.77859228 C461.87794258 776.24394975 461.87805913 779.70928718 461.88251397 783.17464256 C461.88647309 786.89476622 461.88439723 790.61483654 461.88067862 794.33495921 C461.88330563 795.42810014 461.88593265 796.52124106 461.88863927 797.64750746 C461.88639197 798.6287787 461.88414468 799.61004995 461.88182929 800.62105668 C461.88198527 801.47317883 461.88214125 802.32530098 461.88230196 803.20324501 C461.75763079 805.12467116 461.75763079 805.12467116 460.75763079 806.12467116 C420.49763079 806.12467116 380.23763079 806.12467116 338.75763079 806.12467116 C338.75763079 580.40467116 338.75763079 354.68467116 338.75763079 122.12467116 C225.89763079 122.12467116 113.03763079 122.12467116 -3.24236921 122.12467116 C-3.24236921 0.18026913 -3.24236921 0.18026913 0 0 Z " fill="#FEFEFE" transform="translate(534.2423692084849,591.8753288350999)"/>
</svg>
